Coordinates
version=1
nRows=11
nColumns=40
inDegrees=yes

Units are S.I. units (second, meters, Newtons, ...)
If the header above contains a line with 'inDegrees', this indicates whether rotational values are in degrees (yes) or radians (no).

endheader
time	pelvis_tilt	pelvis_list	pelvis_rotation	pelvis_tx	pelvis_ty	pelvis_tz	hip_flexion_r	hip_adduction_r	hip_rotation_r	knee_angle_r	knee_angle_r_beta	ankle_angle_r	subtalar_angle_r	mtp_angle_r	hip_flexion_l	hip_adduction_l	hip_rotation_l	knee_angle_l	knee_angle_l_beta	ankle_angle_l	subtalar_angle_l	mtp_angle_l	lumbar_extension	lumbar_bending	lumbar_rotation	arm_flex_r	arm_add_r	arm_rot_r	elbow_flex_r	pro_sup_r	wrist_flex_r	wrist_dev_r	arm_flex_l	arm_add_l	arm_rot_l	elbow_flex_l	pro_sup_l	wrist_flex_l	wrist_dev_l
      1.40833300	      2.30686903	      1.41496322	     -5.55426883	      0.96558404	      0.99561270	     -0.49947067	     21.26963959	     -3.48140381	      3.68195345	     70.33227571	      1.22752978	     -1.33669727	      0.00000000	      0.00000000	      8.54566324	      3.14745590	     -0.36419669	     20.98360239	      0.36623295	     11.78958804	      0.00000000	      0.00000000	    -11.33318686	     -2.80227395	      2.64248503	    -12.30877660	     -3.30950921	     -8.11116066	     39.35044580	     61.94348199	      0.00000000	      0.00000000	     -7.90603997	     -7.64418726	     -6.72466775	     53.10759921	     71.99569394	      0.00000000	      0.00000000
      1.41666700	      2.17952983	      1.25220914	     -5.39880140	      0.96507691	      0.99692351	     -0.50026336	     22.36092175	     -3.33308576	      3.28038632	     69.29550949	      1.20943480	     -0.98270017	      0.00000000	      0.00000000	      7.66824491	      3.07131822	     -0.39240074	     20.38847861	      0.35584608	     11.96888473	      0.00000000	      0.00000000	    -11.16475011	     -2.50316186	      2.42019415	    -13.08357929	     -3.34317299	     -8.29288930	     38.91376008	     61.96702244	      0.00000000	      0.00000000	     -7.38182128	     -7.72540422	     -6.74254234	     53.97217479	     71.80617516	      0.00000000	      0.00000000
      1.42500000	      2.53373327	      1.11229140	     -5.19368833	      0.96461431	      0.99889361	     -0.50102077	     22.74927151	     -3.28674177	      2.81747271	     67.91951930	      1.18541924	     -0.42665722	      0.00000000	      0.00000000	      5.85664881	      3.12639030	     -0.01568926	     18.95073134	      0.33075266	     11.89055119	      0.00000000	      0.00000000	    -11.65199866	     -2.27545028	      1.92213846	    -13.51099758	     -3.20942465	     -9.04414770	     38.28325220	     62.33000090	      0.00000000	      0.00000000	     -7.13932878	     -7.85276102	     -6.85222571	     55.47654783	     71.08683584	      0.00000000	      0.00000000
      1.43333300	      2.53845284	      0.90986578	     -5.05875861	      0.96410473	      1.00013933	     -0.50142762	     23.48647282	     -3.02252234	      2.49720187	     66.41967536	      1.15924202	      0.05630490	      0.00000000	      0.00000000	      4.68762682	      3.00446008	      0.10605702	     18.04930652	      0.31501983	     11.95194017	      0.00000000	      0.00000000	    -11.66213913	     -1.97091231	      1.69517146	    -14.23382989	     -3.08717799	     -9.80131757	     37.85723240	     64.35324030	      0.00000000	      0.00000000	     -6.85856559	     -8.09293786	     -6.61343761	     56.86463802	     68.07809850	      0.00000000	      0.00000000
      1.44166700	      2.31288867	      0.64503466	     -4.94542408	      0.96344258	      1.00086804	     -0.50182564	     24.44481643	     -2.67338049	      2.17355833	     64.77493989	      1.13053597	      0.45174538	      0.00000000	      0.00000000	      3.86559438	      2.77892828	      0.18498734	     17.33830553	      0.30261052	     12.11568028	      0.00000000	      0.00000000	    -11.41818271	     -1.58075015	      1.51795653	    -14.95038706	     -3.10045410	    -10.08151540	     37.50124949	     64.25631585	      0.00000000	      0.00000000	     -6.61911655	     -8.24674076	     -6.52938347	     58.19764358	     67.99605452	      0.00000000	      0.00000000
      1.45000000	      2.49646543	      0.40169134	     -4.77744561	      0.96291929	      1.00210127	     -0.50225176	     24.75335426	     -2.45528421	      1.73906627	     62.76493814	      1.09545483	      0.83049347	      0.00000000	      0.00000000	      2.40192326	      2.64413417	      0.44466934	     16.23497651	      0.28335379	     12.02037661	      0.00000000	      0.00000000	    -11.66879068	     -1.25033451	      1.19717408	    -15.50853823	     -3.04236464	    -10.64297375	     37.13750368	     64.14444728	      0.00000000	      0.00000000	     -6.42931540	     -8.37658203	     -6.71224245	     59.72982638	     67.68913287	      0.00000000	      0.00000000
      1.45833300	      2.22773046	      0.16181429	     -4.64177527	      0.96216521	      1.00243642	     -0.50246966	     25.56679087	     -2.11270919	      1.46744669	     60.68601455	      1.05917076	      1.19345740	      0.00000000	      0.00000000	      1.63482101	      2.43691220	      0.60887682	     15.51204748	      0.27073630	     12.10601596	      0.00000000	      0.00000000	    -11.36785076	     -0.88871245	      0.98994371	    -16.19905181	     -3.04022961	    -10.91916801	     36.89009519	     64.05430667	      0.00000000	      0.00000000	     -6.17446210	     -8.57656849	     -6.61651376	     61.01829489	     67.53441363	      0.00000000	      0.00000000
      1.46666700	      2.25645724	     -0.07443871	     -4.41200016	      0.96148161	      1.00307338	     -0.50277475	     25.87073549	     -1.88601003	      1.02575028	     58.28340288	      1.01723728	      1.51203612	      0.00000000	      0.00000000	      0.42729258	      2.26648107	      0.96000212	     14.55234547	      0.25398634	     12.12632600	      0.00000000	      0.00000000	    -11.43254239	     -0.55856402	      0.68004614	    -16.79514962	     -2.97845115	    -11.39480985	     36.61743357	     63.94493059	      0.00000000	      0.00000000	     -5.94523428	     -8.75938789	     -6.61456204	     62.48276835	     67.27443386	      0.00000000	      0.00000000
      1.47500000	      2.23825884	     -0.19727224	     -4.20516869	      0.96080019	      1.00344527	     -0.50305784	     26.16844525	     -1.76284330	      0.70449067	     55.73126439	      0.97269406	      1.78091895	      0.00000000	      0.00000000	     -0.66483387	      2.19606605	      1.18523117	     13.70359695	      0.23917289	     12.18635506	      0.00000000	      0.00000000	    -11.42964216	     -0.35324026	      0.37002328	    -17.40787862	     -2.94907381	    -11.80108533	     36.45191386	     63.84114603	      0.00000000	      0.00000000	     -5.71316300	     -8.98483856	     -6.58921243	     63.78784589	     67.00572891	      0.00000000	      0.00000000
      1.48333300	      2.62100098	     -0.36147028	     -3.95685088	      0.96024627	      1.00430729	     -0.50347228	     25.82895912	     -1.68836281	      0.22476854	     52.84602959	      0.92233721	      1.98646467	      0.00000000	      0.00000000	     -2.42182156	      2.11854972	      1.48553357	     12.41180717	      0.21662690	     12.05090266	      0.00000000	      0.00000000	    -11.90856513	     -0.10748473	      0.06751956	    -17.93539421	     -2.84666333	    -12.39093020	     36.37789560	     63.74049901	      0.00000000	      0.00000000	     -5.38815624	     -9.12357496	     -6.68828198	     65.19282150	     66.34069395	      0.00000000	      0.00000000
      1.49166700	      2.37053810	     -0.48186164	     -3.76549367	      0.95951146	      1.00401413	     -0.50384736	     26.21439561	     -1.52626868	     -0.03098551	     49.94002124	      0.87161780	      2.15075144	      0.00000000	      0.00000000	     -3.19533645	      2.02528398	      1.66823298	     11.67018981	      0.20368324	     12.23617721	      0.00000000	      0.00000000	    -11.62985673	      0.12446997	     -0.15245108	    -18.58923681	     -2.85912275	    -12.68687982	     36.30933907	     63.63423240	      0.00000000	      0.00000000	     -5.18606522	     -9.31923620	     -6.52699656	     66.49967217	     66.04144923	      0.00000000	      0.00000000
